<svg width="280" height="156" viewBox="0 0 280 156" fill="none" xmlns="http://www.w3.org/2000/svg">
<g filter="url(#filter0_d_42_8)">
<path fill-rule="evenodd" clip-rule="evenodd" d="M17 7C11.4772 7 7 11.4771 7 17V110C7 115.523 11.4772 120 17 120H30.6262L30.626 142.5L47.2369 120H257C262.523 120 267 115.523 267 110V17C267 11.4772 262.523 7 257 7H17Z" fill="#FF994E" fill-opacity="0.8" shape-rendering="crispEdges"/>
</g>
<path d="M67.8182 92.3409C66.0303 92.3409 64.4924 91.9621 63.2045 91.2045C61.9242 90.4394 60.9394 89.3788 60.25 88.0227C59.5682 86.6667 59.2273 85.1061 59.2273 83.3409C59.2273 81.553 59.572 79.9848 60.2614 78.6364C60.9583 77.2803 61.947 76.2235 63.2273 75.4659C64.5076 74.7008 66.0303 74.3182 67.7955 74.3182C69.3182 74.3182 70.6515 74.5947 71.7955 75.1477C72.9394 75.7008 73.8447 76.4773 74.5114 77.4773C75.178 78.4773 75.5455 79.6515 75.6136 81H71.0455C70.9167 80.1288 70.5758 79.428 70.0227 78.8977C69.4773 78.3598 68.7614 78.0909 67.875 78.0909C67.125 78.0909 66.4697 78.2955 65.9091 78.7045C65.3561 79.1061 64.9242 79.6932 64.6136 80.4659C64.303 81.2386 64.1477 82.1742 64.1477 83.2727C64.1477 84.3864 64.2992 85.3333 64.6023 86.1136C64.9129 86.8939 65.3485 87.4886 65.9091 87.8977C66.4697 88.3068 67.125 88.5114 67.875 88.5114C68.428 88.5114 68.9242 88.3977 69.3636 88.1705C69.8106 87.9432 70.178 87.6136 70.4659 87.1818C70.7614 86.7424 70.9545 86.2159 71.0455 85.6023H75.6136C75.5379 86.9356 75.1742 88.1098 74.5227 89.125C73.8788 90.1326 72.9886 90.9205 71.8523 91.4886C70.7159 92.0568 69.3712 92.3409 67.8182 92.3409ZM83.554 68.7273V92H78.7131V68.7273H83.554ZM87.4318 92V74.5455H92.2727V92H87.4318ZM89.8636 72.2955C89.1439 72.2955 88.5265 72.0568 88.0114 71.5795C87.5038 71.0947 87.25 70.5152 87.25 69.8409C87.25 69.1742 87.5038 68.6023 88.0114 68.125C88.5265 67.6402 89.1439 67.3977 89.8636 67.3977C90.5833 67.3977 91.197 67.6402 91.7045 68.125C92.2197 68.6023 92.4773 69.1742 92.4773 69.8409C92.4773 70.5152 92.2197 71.0947 91.7045 71.5795C91.197 72.0568 90.5833 72.2955 89.8636 72.2955ZM104.037 92.3409C102.249 92.3409 100.711 91.9621 99.4233 91.2045C98.143 90.4394 97.1581 89.3788 96.4688 88.0227C95.7869 86.6667 95.446 85.1061 95.446 83.3409C95.446 81.553 95.7907 79.9848 96.4801 78.6364C97.1771 77.2803 98.1657 76.2235 99.446 75.4659C100.726 74.7008 102.249 74.3182 104.014 74.3182C105.537 74.3182 106.87 74.5947 108.014 75.1477C109.158 75.7008 110.063 76.4773 110.73 77.4773C111.397 78.4773 111.764 79.6515 111.832 81H107.264C107.135 80.1288 106.795 79.428 106.241 78.8977C105.696 78.3598 104.98 78.0909 104.094 78.0909C103.344 78.0909 102.688 78.2955 102.128 78.7045C101.575 79.1061 101.143 79.6932 100.832 80.4659C100.522 81.2386 100.366 82.1742 100.366 83.2727C100.366 84.3864 100.518 85.3333 100.821 86.1136C101.132 86.8939 101.567 87.4886 102.128 87.8977C102.688 88.3068 103.344 88.5114 104.094 88.5114C104.647 88.5114 105.143 88.3977 105.582 88.1705C106.029 87.9432 106.397 87.6136 106.685 87.1818C106.98 86.7424 107.173 86.2159 107.264 85.6023H111.832C111.757 86.9356 111.393 88.1098 110.741 89.125C110.098 90.1326 109.207 90.9205 108.071 91.4886C106.935 92.0568 105.59 92.3409 104.037 92.3409ZM119.318 86.9773L119.33 81.1705H120.034L125.625 74.5455H131.182L123.67 83.3182H122.523L119.318 86.9773ZM114.932 92V68.7273H119.773V92H114.932ZM125.841 92L120.705 84.3977L123.932 80.9773L131.511 92H125.841ZM145.804 81.9091V92H140.963V68.7273H145.668V77.625H145.872C146.266 76.5947 146.902 75.7879 147.781 75.2045C148.66 74.6136 149.762 74.3182 151.088 74.3182C152.3 74.3182 153.357 74.5833 154.259 75.1136C155.168 75.6364 155.872 76.3902 156.372 77.375C156.88 78.3523 157.13 79.5227 157.122 80.8864V92H152.281V81.75C152.289 80.6742 152.016 79.8371 151.463 79.2386C150.918 78.6402 150.152 78.3409 149.168 78.3409C148.509 78.3409 147.925 78.4811 147.418 78.7614C146.918 79.0417 146.524 79.4508 146.236 79.9886C145.955 80.5189 145.812 81.1591 145.804 81.9091ZM168.886 92.3409C167.091 92.3409 165.545 91.9773 164.25 91.25C162.962 90.5152 161.97 89.4773 161.273 88.1364C160.576 86.7879 160.227 85.1932 160.227 83.3523C160.227 81.5568 160.576 79.9811 161.273 78.625C161.97 77.2689 162.951 76.2121 164.216 75.4545C165.489 74.697 166.981 74.3182 168.693 74.3182C169.845 74.3182 170.917 74.5038 171.909 74.875C172.909 75.2386 173.78 75.7879 174.523 76.5227C175.273 77.2576 175.856 78.1818 176.273 79.2955C176.689 80.4015 176.898 81.697 176.898 83.1818V84.5114H162.159V81.5114H172.341C172.341 80.8144 172.189 80.197 171.886 79.6591C171.583 79.1212 171.163 78.7008 170.625 78.3977C170.095 78.0871 169.477 77.9318 168.773 77.9318C168.038 77.9318 167.386 78.1023 166.818 78.4432C166.258 78.7765 165.818 79.2273 165.5 79.7955C165.182 80.3561 165.019 80.9811 165.011 81.6705V84.5227C165.011 85.3864 165.17 86.1326 165.489 86.7614C165.814 87.3902 166.273 87.875 166.864 88.2159C167.455 88.5568 168.155 88.7273 168.966 88.7273C169.504 88.7273 169.996 88.6515 170.443 88.5C170.89 88.3485 171.273 88.1212 171.591 87.8182C171.909 87.5152 172.152 87.1439 172.318 86.7045L176.795 87C176.568 88.0758 176.102 89.0152 175.398 89.8182C174.701 90.6136 173.799 91.2348 172.693 91.6818C171.595 92.1212 170.326 92.3409 168.886 92.3409ZM180.057 92V74.5455H184.75V77.5909H184.932C185.25 76.5076 185.784 75.6894 186.534 75.1364C187.284 74.5758 188.148 74.2955 189.125 74.2955C189.367 74.2955 189.629 74.3106 189.909 74.3409C190.189 74.3712 190.436 74.4129 190.648 74.4659V78.7614C190.42 78.6932 190.106 78.6326 189.705 78.5795C189.303 78.5265 188.936 78.5 188.602 78.5C187.89 78.5 187.254 78.6553 186.693 78.9659C186.14 79.2689 185.701 79.6932 185.375 80.2386C185.057 80.7841 184.898 81.4129 184.898 82.125V92H180.057ZM200.293 92.3409C198.497 92.3409 196.952 91.9773 195.656 91.25C194.368 90.5152 193.376 89.4773 192.679 88.1364C191.982 86.7879 191.634 85.1932 191.634 83.3523C191.634 81.5568 191.982 79.9811 192.679 78.625C193.376 77.2689 194.357 76.2121 195.622 75.4545C196.895 74.697 198.387 74.3182 200.099 74.3182C201.251 74.3182 202.323 74.5038 203.315 74.875C204.315 75.2386 205.187 75.7879 205.929 76.5227C206.679 77.2576 207.262 78.1818 207.679 79.2955C208.096 80.4015 208.304 81.697 208.304 83.1818V84.5114H193.565V81.5114H203.747C203.747 80.8144 203.596 80.197 203.293 79.6591C202.99 79.1212 202.569 78.7008 202.031 78.3977C201.501 78.0871 200.884 77.9318 200.179 77.9318C199.444 77.9318 198.793 78.1023 198.224 78.4432C197.664 78.7765 197.224 79.2273 196.906 79.7955C196.588 80.3561 196.425 80.9811 196.418 81.6705V84.5227C196.418 85.3864 196.577 86.1326 196.895 86.7614C197.221 87.3902 197.679 87.875 198.27 88.2159C198.861 88.5568 199.562 88.7273 200.372 88.7273C200.91 88.7273 201.402 88.6515 201.849 88.5C202.296 88.3485 202.679 88.1212 202.997 87.8182C203.315 87.5152 203.558 87.1439 203.724 86.7045L208.202 87C207.974 88.0758 207.509 89.0152 206.804 89.8182C206.107 90.6136 205.205 91.2348 204.099 91.6818C203.001 92.1212 201.732 92.3409 200.293 92.3409ZM224.653 68.7273L224.21 85.0227H220.051L219.597 68.7273H224.653ZM222.131 92.2955C221.381 92.2955 220.737 92.0303 220.199 91.5C219.661 90.9621 219.396 90.3182 219.403 89.5682C219.396 88.8258 219.661 88.1894 220.199 87.6591C220.737 87.1288 221.381 86.8636 222.131 86.8636C222.85 86.8636 223.483 87.1288 224.028 87.6591C224.574 88.1894 224.85 88.8258 224.858 89.5682C224.85 90.0682 224.718 90.5265 224.46 90.9432C224.21 91.3523 223.881 91.6818 223.472 91.9318C223.062 92.1742 222.616 92.2955 222.131 92.2955Z" fill="white"/>
<path d="M59.8409 54.9091V36.9091H61.7841V38.9886H62.0227C62.1705 38.7614 62.375 38.4716 62.6364 38.1193C62.9034 37.7614 63.2841 37.4432 63.7784 37.1648C64.2784 36.8807 64.9545 36.7386 65.8068 36.7386C66.9091 36.7386 67.8807 37.0142 68.7216 37.5653C69.5625 38.1165 70.2188 38.8977 70.6903 39.9091C71.1619 40.9205 71.3977 42.1136 71.3977 43.4886C71.3977 44.875 71.1619 46.0767 70.6903 47.0938C70.2188 48.1051 69.5653 48.8892 68.7301 49.446C67.8949 49.9972 66.9318 50.2727 65.8409 50.2727C65 50.2727 64.3267 50.1335 63.821 49.8551C63.3153 49.571 62.9261 49.25 62.6534 48.892C62.3807 48.5284 62.1705 48.2273 62.0227 47.9886H61.8523V54.9091H59.8409ZM61.8182 43.4545C61.8182 44.4432 61.9631 45.3153 62.2528 46.071C62.5426 46.821 62.9659 47.4091 63.5227 47.8352C64.0795 48.2557 64.7614 48.4659 65.5682 48.4659C66.4091 48.4659 67.1108 48.2443 67.6733 47.8011C68.2415 47.3523 68.6676 46.75 68.9517 45.9943C69.2415 45.233 69.3864 44.3864 69.3864 43.4545C69.3864 42.5341 69.2443 41.7045 68.9602 40.9659C68.6818 40.2216 68.2585 39.6335 67.6903 39.2017C67.1278 38.7642 66.4205 38.5455 65.5682 38.5455C64.75 38.5455 64.0625 38.7528 63.5057 39.1676C62.9489 39.5767 62.5284 40.1506 62.2443 40.8892C61.9602 41.6222 61.8182 42.4773 61.8182 43.4545ZM76.4773 32.5455V50H74.4659V32.5455H76.4773ZM84.0135 50.3068C83.1839 50.3068 82.4311 50.1506 81.755 49.8381C81.0788 49.5199 80.5419 49.0625 80.1442 48.4659C79.7464 47.8636 79.5476 47.1364 79.5476 46.2841C79.5476 45.5341 79.6953 44.9261 79.9908 44.4602C80.2862 43.9886 80.6811 43.6193 81.1754 43.3523C81.6697 43.0852 82.2152 42.8864 82.8118 42.7557C83.4141 42.6193 84.0192 42.5114 84.6271 42.4318C85.4226 42.3295 86.0675 42.2528 86.5618 42.2017C87.0618 42.1449 87.4254 42.0511 87.6527 41.9205C87.8857 41.7898 88.0021 41.5625 88.0021 41.2386V41.1705C88.0021 40.3295 87.772 39.6761 87.3118 39.2102C86.8572 38.7443 86.1669 38.5114 85.2408 38.5114C84.2805 38.5114 83.5277 38.7216 82.9822 39.142C82.4368 39.5625 82.0533 40.0114 81.8317 40.4886L79.9226 39.8068C80.2635 39.0114 80.718 38.392 81.2862 37.9489C81.8601 37.5 82.4851 37.1875 83.1612 37.0114C83.843 36.8295 84.5135 36.7386 85.1726 36.7386C85.593 36.7386 86.076 36.7898 86.6214 36.892C87.1726 36.9886 87.7038 37.1903 88.2152 37.4972C88.7322 37.804 89.1612 38.267 89.5021 38.8864C89.843 39.5057 90.0135 40.3352 90.0135 41.375V50H88.0021V48.2273H87.8999C87.7635 48.5114 87.5362 48.8153 87.218 49.1392C86.8999 49.4631 86.4766 49.7386 85.9482 49.9659C85.4197 50.1932 84.7749 50.3068 84.0135 50.3068ZM84.3203 48.5C85.1158 48.5 85.7862 48.3438 86.3317 48.0312C86.8828 47.7188 87.2976 47.3153 87.576 46.821C87.8601 46.3267 88.0021 45.8068 88.0021 45.2614V43.4205C87.9169 43.5227 87.7294 43.6165 87.4396 43.7017C87.1555 43.7812 86.826 43.8523 86.451 43.9148C86.0817 43.9716 85.7209 44.0227 85.3686 44.0682C85.022 44.108 84.7408 44.142 84.5249 44.1705C84.0021 44.2386 83.5135 44.3494 83.0589 44.5028C82.6101 44.6506 82.2464 44.875 81.968 45.1761C81.6953 45.4716 81.5589 45.875 81.5589 46.3864C81.5589 47.0852 81.8175 47.6136 82.3345 47.9716C82.8572 48.3239 83.5192 48.5 84.3203 48.5ZM94.5114 54.9091C94.1705 54.9091 93.8665 54.8807 93.5994 54.8239C93.3324 54.7727 93.1477 54.7216 93.0455 54.6705L93.5568 52.8977C94.0455 53.0227 94.4773 53.0682 94.8523 53.0341C95.2273 53 95.5597 52.8324 95.8494 52.5312C96.1449 52.2358 96.4148 51.7557 96.6591 51.0909L97.0341 50.0682L92.1932 36.9091H94.375L97.9886 47.3409H98.125L101.739 36.9091H103.92L98.3636 51.9091C98.1136 52.5852 97.804 53.1449 97.4347 53.5881C97.0653 54.0369 96.6364 54.3693 96.1477 54.5852C95.6648 54.8011 95.1193 54.9091 94.5114 54.9091ZM117.178 50.3068C116.348 50.3068 115.595 50.1506 114.919 49.8381C114.243 49.5199 113.706 49.0625 113.308 48.4659C112.911 47.8636 112.712 47.1364 112.712 46.2841C112.712 45.5341 112.859 44.9261 113.155 44.4602C113.45 43.9886 113.845 43.6193 114.339 43.3523C114.834 43.0852 115.379 42.8864 115.976 42.7557C116.578 42.6193 117.183 42.5114 117.791 42.4318C118.587 42.3295 119.232 42.2528 119.726 42.2017C120.226 42.1449 120.589 42.0511 120.817 41.9205C121.05 41.7898 121.166 41.5625 121.166 41.2386V41.1705C121.166 40.3295 120.936 39.6761 120.476 39.2102C120.021 38.7443 119.331 38.5114 118.405 38.5114C117.445 38.5114 116.692 38.7216 116.146 39.142C115.601 39.5625 115.217 40.0114 114.996 40.4886L113.087 39.8068C113.428 39.0114 113.882 38.392 114.45 37.9489C115.024 37.5 115.649 37.1875 116.325 37.0114C117.007 36.8295 117.678 36.7386 118.337 36.7386C118.757 36.7386 119.24 36.7898 119.786 36.892C120.337 36.9886 120.868 37.1903 121.379 37.4972C121.896 37.804 122.325 38.267 122.666 38.8864C123.007 39.5057 123.178 40.3352 123.178 41.375V50H121.166V48.2273H121.064C120.928 48.5114 120.7 48.8153 120.382 49.1392C120.064 49.4631 119.641 49.7386 119.112 49.9659C118.584 50.1932 117.939 50.3068 117.178 50.3068ZM117.484 48.5C118.28 48.5 118.95 48.3438 119.496 48.0312C120.047 47.7188 120.462 47.3153 120.74 46.821C121.024 46.3267 121.166 45.8068 121.166 45.2614V43.4205C121.081 43.5227 120.893 43.6165 120.604 43.7017C120.32 43.7812 119.99 43.8523 119.615 43.9148C119.246 43.9716 118.885 44.0227 118.533 44.0682C118.186 44.108 117.905 44.142 117.689 44.1705C117.166 44.2386 116.678 44.3494 116.223 44.5028C115.774 44.6506 115.411 44.875 115.132 45.1761C114.859 45.4716 114.723 45.875 114.723 46.3864C114.723 47.0852 114.982 47.6136 115.499 47.9716C116.021 48.3239 116.683 48.5 117.484 48.5ZM126.849 54.9091V36.9091H128.792V38.9886H129.031C129.178 38.7614 129.383 38.4716 129.644 38.1193C129.911 37.7614 130.292 37.4432 130.786 37.1648C131.286 36.8807 131.962 36.7386 132.815 36.7386C133.917 36.7386 134.888 37.0142 135.729 37.5653C136.57 38.1165 137.227 38.8977 137.698 39.9091C138.17 40.9205 138.406 42.1136 138.406 43.4886C138.406 44.875 138.17 46.0767 137.698 47.0938C137.227 48.1051 136.573 48.8892 135.738 49.446C134.903 49.9972 133.94 50.2727 132.849 50.2727C132.008 50.2727 131.335 50.1335 130.829 49.8551C130.323 49.571 129.934 49.25 129.661 48.892C129.388 48.5284 129.178 48.2273 129.031 47.9886H128.86V54.9091H126.849ZM128.826 43.4545C128.826 44.4432 128.971 45.3153 129.261 46.071C129.55 46.821 129.974 47.4091 130.531 47.8352C131.087 48.2557 131.769 48.4659 132.576 48.4659C133.417 48.4659 134.119 48.2443 134.681 47.8011C135.249 47.3523 135.675 46.75 135.96 45.9943C136.249 45.233 136.394 44.3864 136.394 43.4545C136.394 42.5341 136.252 41.7045 135.968 40.9659C135.69 40.2216 135.266 39.6335 134.698 39.2017C134.136 38.7642 133.428 38.5455 132.576 38.5455C131.758 38.5455 131.07 38.7528 130.513 39.1676C129.957 39.5767 129.536 40.1506 129.252 40.8892C128.968 41.6222 128.826 42.4773 128.826 43.4545ZM141.474 54.9091V36.9091H143.417V38.9886H143.656C143.803 38.7614 144.008 38.4716 144.269 38.1193C144.536 37.7614 144.917 37.4432 145.411 37.1648C145.911 36.8807 146.587 36.7386 147.44 36.7386C148.542 36.7386 149.513 37.0142 150.354 37.5653C151.195 38.1165 151.852 38.8977 152.323 39.9091C152.795 40.9205 153.031 42.1136 153.031 43.4886C153.031 44.875 152.795 46.0767 152.323 47.0938C151.852 48.1051 151.198 48.8892 150.363 49.446C149.528 49.9972 148.565 50.2727 147.474 50.2727C146.633 50.2727 145.96 50.1335 145.454 49.8551C144.948 49.571 144.559 49.25 144.286 48.892C144.013 48.5284 143.803 48.2273 143.656 47.9886H143.485V54.9091H141.474ZM143.451 43.4545C143.451 44.4432 143.596 45.3153 143.886 46.071C144.175 46.821 144.599 47.4091 145.156 47.8352C145.712 48.2557 146.394 48.4659 147.201 48.4659C148.042 48.4659 148.744 48.2443 149.306 47.8011C149.874 47.3523 150.3 46.75 150.585 45.9943C150.874 45.233 151.019 44.3864 151.019 43.4545C151.019 42.5341 150.877 41.7045 150.593 40.9659C150.315 40.2216 149.891 39.6335 149.323 39.2017C148.761 38.7642 148.053 38.5455 147.201 38.5455C146.383 38.5455 145.695 38.7528 145.138 39.1676C144.582 39.5767 144.161 40.1506 143.877 40.8892C143.593 41.6222 143.451 42.4773 143.451 43.4545Z" fill="white"/>
<defs>
<filter id="filter0_d_42_8" x="0" y="0" width="280" height="155.5" filterUnits="userSpaceOnUse" color-interpolation-filters="sRGB">
<feFlood flood-opacity="0" result="BackgroundImageFix"/>
<feColorMatrix in="SourceAlpha" type="matrix" values="0 0 0 0 0 0 0 0 0 0 0 0 0 0 0 0 0 0 127 0" result="hardAlpha"/>
<feOffset dx="3" dy="3"/>
<feGaussianBlur stdDeviation="5"/>
<feComposite in2="hardAlpha" operator="out"/>
<feColorMatrix type="matrix" values="0 0 0 0 0 0 0 0 0 0 0 0 0 0 0 0 0 0 0.15 0"/>
<feBlend mode="normal" in2="BackgroundImageFix" result="effect1_dropShadow_42_8"/>
<feBlend mode="normal" in="SourceGraphic" in2="effect1_dropShadow_42_8" result="shape"/>
</filter>
</defs>
</svg>
